<svg width="25" height="24" viewBox="0 0 25 24" fill="none" xmlns="http://www.w3.org/2000/svg">
<path d="M0 11.9698V11.1256C0 10.598 0.104478 9.96482 0.313433 9.43719C1.25373 5.84925 4.49254 3.21106 8.14925 3H9.19403C9.71642 3 10.3433 3.10553 10.8657 3.31658C14.3134 4.26633 16.9254 7.32663 17.1343 11.1256C17.1343 11.7588 17.1343 12.4975 17.0299 13.1307C16.8209 14.1859 16.5075 15.1357 15.9851 16.0854C15.9851 16.0854 15.9851 16.191 15.8806 16.191C15.8806 16.191 15.9851 16.191 15.9851 16.2965L20.791 21.1508L21 21.3618V21.6784C21 21.7839 20.8955 21.8894 20.8955 21.995C20.791 22.206 20.6866 22.4171 20.4776 22.6281L19.6418 23.4724C19.3284 23.6834 19.1194 23.8945 18.7015 24H18.4925C18.3881 24 18.2836 23.8945 18.1791 23.7889L13.4776 19.0402L13.3731 18.9347H13.2687C11.7015 19.99 9.92537 20.4121 8.04478 20.3065C7.52239 20.3065 7 20.201 6.58209 20.0955C4.1791 19.4623 2.08955 17.7739 1.04478 15.5578C0.522388 14.5025 0.208955 13.4472 0.208955 12.2864C-1.99275e-07 12.0754 0 12.0754 0 11.9698ZM2.8209 11.6533C2.8209 14.8191 5.32836 17.4573 8.56716 17.4573C11.7015 17.4573 14.3134 14.9246 14.3134 11.6533C14.3134 8.48744 11.806 5.84925 8.56716 5.84925C5.43284 5.84925 2.8209 8.38191 2.8209 11.6533Z" fill="url(#paint0_linear_3210_645)"/>
<path d="M18 0L20.5016 3.55682L24.6574 4.83688L22.0477 8.31518L22.1145 12.6631L18 11.256L13.8855 12.6631L13.9523 8.31518L11.3426 4.83688L15.4984 3.55682L18 0Z" fill="#E16424"/>
<defs>
<linearGradient id="paint0_linear_3210_645" x1="10.5" y1="3" x2="10.5" y2="24" gradientUnits="userSpaceOnUse">
<stop stop-color="#FFB400"/>
<stop offset="0.1875" stop-color="#FF9900"/>
<stop offset="0.475962" stop-color="#E66625"/>
<stop offset="1" stop-color="#BA501D"/>
</linearGradient>
</defs>
</svg>
